# xmcd
#
# Track frame offsets: 
#        150
#        13279
#        29254
#        50341
#        61609
#        83966
#        98912
#        119429
#        146961
#        160775
#        180923
#        198028
#        212382
#        230857
#        247829
#        273943
#        299866
#
# Disc length: 4159 seconds
#
# Revision: 1
# Processed by: cddbd v1.5.2PL0 Copyright (c) Steve Scherf et al.
# Submitted via: ExactAudioCopy v0.99pb5
#
DISCID=ee103d11
DTITLE=Lightnin' Hopkins - Po' Lightnin'
DYEAR=1969
DGENRE=Blues
TTITLE0=Mojo Hand
TTITLE1=Rock Me Baby
TTITLE2=Hello Central
TTITLE3=Ain't it Crazy
TTITLE4=Candy Kitchen
TTITLE5=My Starter Won't Start This Morning
TTITLE6=One Kind Favor I Ask of You
TTITLE7=Little Girl
TTITLE8=Baby Please Don't Go
TTITLE9=My Baby's Gone
TTITLE10=If You Don't Want Me [Live at Berkeley Festival '66]
TTITLE11=I Feel So Good [Live at Berkeley Festival '66]
TTITLE12=Last Night [Live at Berkeley Festival '66]
TTITLE13=Goin' to Louisiana (Mojo Hand) [Live at Berkeley Festival '66
TTITLE13=]
TTITLE14=Black Cadillac [Live at Berkeley Festival '66]
TTITLE15=Short Haried Woman [Live at Berkeley Festival '66]
TTITLE16=Lightning's Boogie [Live at Berkeley Festival '66]
EXTD=
EXTT0=
EXTT1=
EXTT2=
EXTT3=
EXTT4=
EXTT5=
EXTT6=
EXTT7=
EXTT8=
EXTT9=
EXTT10=
EXTT11=
EXTT12=
EXTT13=
EXTT14=
EXTT15=
EXTT16=
PLAYORDER=
